<svg xmlns="http://www.w3.org/2000/svg" width="70" height="70" viewBox="0 0 395 381"><style type="text/css">  
	.st0{fill:#949497;}
	.st1{fill:#555555;}
	.st2{opacity:0.25;}
	.st3{opacity:0.97;fill:#E2E8E3;}
	.st4{opacity:0.34;}
	.st5{fill:none;stroke:#000000;stroke-width:4;stroke-miterlimit:10;}
	.st6{fill:none;stroke:#000000;stroke-width:6;stroke-miterlimit:10;}
	.st7{fill:none;}
</style><path class="st0" d="M107 352.9C184 403 107 352.9 107 352.9s43.8 22.6 93.4-2.6 0 0 0 0S245 328 251 272c0 0 0-24.9-7.1-42.8 -0.3-0.7-0.6-1.5-0.9-2.2 -8-18 0 2 0 2l-5-2c0 0-6 5-22 2 0 0-21-7-27-17 0 0-8-17-9-27l0-16.8c0 0-22-16.4-54.5-10.3 -32.5 6.1 0 0 0 0s-39.5 4.2-63 36.5c-13.8 19-15.7 38.4-16.8 48.5 -0.9 9-2.9 39.4 15.2 69.1 11.7 19.2 26.7 29.7 30 32 5.4 3.7 10.3 6.3 14 8"/><path class="st1" d="M242.3 225.3c0 0-26.3 9.7-48.3-10.3s0-1 0-1 -15-8.4-14-42.7l1-3.3h15c0 0 24-3 40-30 0 0 21-39-8-67 0 0-8-13-35-14 0 0-26 1-39 24 0 0-14 20 5 49 0 0 11 17 22 21l29 10c0 0-12 10-31 4 0 0-23-11-32-8l-23-35c0 0-9-17 2-47 0 0 12-40 70-46 0 0 46-2 64 44 0 0 10 31 0 65l-16 50 -4 17 3 9L242.3 225.3z"/><path class="st1" d="M242.3 198.3L251 171l39 18 12 7 17 10 8 4h9 6l7-9 5-11 3-9 4-7c0 0 19-9 20 5l-28 54 -23 48c0 0 1 18 18 22h13l5 5 2 5v9l-3 3h-7l-63-25 -16-3 -15 2 -5-7v-8l4-10 11 5 3 3 16 1 13-4 9-8 5-11 1-18 -11-14 -24-15 -22-9L242.3 198.3z"/><polygon class="st2" points="162 134 124 115 124 122 135 142 143 152 149 157 168 163 177 166 182 168 196 167 209 164 214 161 190 155 175 147 167 139 "/><polygon class="st2" points="261 176 285 212 242 199 245 185 250 171 262 176 "/><path class="st4" d="M87 334c16.2 1.1 40.6 0.5 68.1-8.8 52.2-17.7 80.8-55.4 90.9-70.2 0 0 3.5 6.3 3.8 17.6 0.7 22.5-9.5 39.3-14.8 47.4 -23.3 35.6-67.4 44.4-76 46 -8.4-0.1-22.4-1.3-38-8C104 350.7 92.9 340.4 87 334z"/><path class="st5" d="M182 168c5.2 0.4 18.1 0.6 31.8-7 2.9-1.6 13.9-8.1 21.2-21 10.6-18.5 13-48.8-5.9-68 -1.7-1.7-20.3-19.9-45.1-14 -18.8 4.5-32.7 20.7-35 38 -2.4 17.6 7.6 31 12 37 17.7 23.8 46.3 27.3 53 28"/><path class="st5" d="M243.1 227c-0.7-3.3-1.6-8.3-1.8-14.4 -0.7-19.2 5.6-32.5 10.7-46.6 3.1-8.5 10.4-28.9 12-48 1.1-12.4 3.8-44.6-18.2-67.6C227.6 31.5 197.3 23.5 170 33c-31.3 10.9-50.3 42.2-49 71 1.5 33.1 27.3 52.3 31 55"/><path class="st5" d="M250 172c25.3 8.2 43.5 18.1 56 26 11.2 7.1 23.9 16.6 34 12 4.4-2 7-6.1 10-11 7.9-12.7 4.6-20.6 11-25 5.7-3.9 15.8-3.6 19 1 3.7 5.2-3.1 13.7-22 48 -4.7 8.6-8.2 15.4-15 29 -12.5 24.9-14.5 30.8-12 37 2.9 7.1 11.4 13.8 20 15 6 0.8 8.6-1.2 12 1 5.8 3.8 7.3 15.6 3 19 -2.9 2.3-7.4 0.1-20-5 -8.1-3.3-20.7-8.4-28-11 -21.4-7.8-37.4-13.5-49-10 -1.2 0.4-3.8 1.2-6 0 -6.6-3.6-4.7-22.7 0-24 1.7-0.5 4.2 1.3 8 4 1.8 1.3 2.7 2.2 4.7 3 2.1 0.9 4 0.7 5.3 1 1.8 0.4 15.1 3 26-4 6.8-4.3 9.9-10.6 11-13 1.2-2.6 5.5-12.5 2-23 -2.6-7.7-8.5-11.8-20-20 -2.4-1.7-12.3-8.7-28-15 -7.8-3.1-18.6-6.7-32-9"/><path class="st5" d="M182 168c-0.9 3-1.9 7.5-2 13 0 1.8 0.1 26.2 20 40 2.6 1.8 12.3 8.3 26 8 7.6-0.2 13.5-2.4 17-4"/><path class="st6" d="M242 227c4.2 8.8 9.8 24.1 9 43 -1.6 37.6-28.2 73.2-65 87 -40.8 15.3-84.9 0.3-111-27 -38.9-40.7-38.5-109.3-5-145 25.3-27 63.4-28 65-28 22.2-0.3 39 7.5 47 12"/><rect class="st7" width="395" height="381"/></svg>