<svg xmlns="http://www.w3.org/2000/svg" width="70" height="70"  viewBox="0 0 192.3 181.3"><style type="text/css">  
	.st0{fill:#FFFFFF;}
	.st1{fill:#FCFCFC;}
	.st2{fill:none;}
	.st3{fill:#F7F7F7;}
	.st4{fill:#949497;}
	.st5{fill:none;stroke:#000000;stroke-width:5;stroke-miterlimit:10;}
	.st6{display:none;fill:none;stroke:#000000;stroke-miterlimit:10;}
</style><polygon class="st0" points="100 124.7 98.9 124.7 66.8 124.7 66.8 56.6 133.7 60.7 127.1 130.6 "/><path class="st1" d="M16.1 93.6c0 0-5 68.9 84.2 79.7 0 0 50.3-0.2 74.3-51.5l5.6-28.2h-60.9l-6.6 12.2 -8.5 4.4 -8.9 4.1 -9-3.5 -7-5.8 -6.3-11.5H16.1z"/><path class="st2" d="M179.2 92.7l1 0c-0.4 45-36.9 81.4-82 81.4s-81.7-36.4-82-81.4l0.7 0h57.8c0.6 11.5 10.1 20.6 21.7 20.6s21.1-9.1 21.7-20.6H179.2z"/><path class="st3" d="M84.4 88.6c0 0.2 0.1 0.3 0.1 0.5 0-0.1-0.1-0.3-0.1-0.4C84.4 88.6 84.4 88.6 84.4 88.6z"/><path class="st4" d="M16.1 92c0-45.3 36.7-82 82-82s82 36.7 82 82c0 0.2 0 0.5 0 0.7l-1 0h-61.1c0-0.4 0-0.8 0-1.2 0-12-9.7-21.7-21.7-21.7S74.5 79.5 74.5 91.5c0 0.4 0 0.8 0 1.2H16.8l-0.7 0C16.1 92.5 16.1 92.2 16.1 92z"/><path class="st5" d="M16.1 92.7c0-0.2 0-0.4 0-0.7 0-45.3 36.7-82 82-82s82 36.7 82 82c0 0.2 0 0.5 0 0.7 -0.4 45-36.9 81.4-82 81.4S16.5 137.7 16.1 92.7z"/><polyline class="st5" points="76.1 92.7 74.6 92.7 16.8 92.7 "/><polyline class="st5" points="179.2 92.7 118 92.7 115.4 92.7 "/><path class="st5" d="M74.6 92.7c0-0.4 0-0.8 0-1.2 0-12 9.7-21.7 21.8-21.7s21.8 9.7 21.8 21.8c0 0.4 0 0.8 0 1.2 -0.6 11.5-10.1 20.6-21.7 20.6S75.2 104.2 74.6 92.7z"/><rect x="0.5" y="0.5" class="st6" width="191.3" height="180.3"/></svg>