<?xml version="1.0" encoding="utf-8"?>
<!-- Generator: Adobe Illustrator 24.1.1, SVG Export Plug-In . SVG Version: 6.00 Build 0)  -->
<svg version="1.1" xmlns="http://www.w3.org/2000/svg" xmlns:xlink="http://www.w3.org/1999/xlink" x="0px" y="0px"
	 viewBox="0 0 59 107" width="80" height="80" style="enable-background:new 0 0 59 107;" xml:space="preserve">
<style type="text/css">
	.st0{fill:#FFFFFF;}
	.st1{fill:#CCCCCC;}
	.st2{fill-rule:evenodd;clip-rule:evenodd;fill:#FFFFFF;}
	.st3{fill:none;stroke:#000000;stroke-width:3;stroke-miterlimit:10;}
	.st4{fill-rule:evenodd;clip-rule:evenodd;fill:none;stroke:#000000;stroke-miterlimit:10;}
	.st5{fill-rule:evenodd;clip-rule:evenodd;stroke:#000000;stroke-miterlimit:10;}
	.st6{fill-rule:evenodd;clip-rule:evenodd;fill:none;}
</style>
<g id="bottleBG">
	<polygon class="st0" points="3.5,100.69 7.5,101.5 24.5,101.5 51.5,101.5 55.5,99.88 54.5,93.5 47.5,67.5 44.5,52.5 43.5,29.19 
		43.5,23.5 35.86,23.5 31.24,34.5 27,34.5 22.3,23.5 15.5,23.5 14.5,25.13 12.5,60.5 8.5,79.5 	"/>
</g>
<g id="tapaBG">
	<polygon class="st0" points="14.5,23.5 14.5,5.5 43.5,5.5 44.25,23.57 35.5,23.5 31.5,34.5 27.5,34.5 22.5,23.5 	"/>
</g>
<g id="tapaSH">
	<g>
		<path class="st1" d="M19.96,23.37V4.49h16.02c1.21,0,2.19,0.38,2.19,0.84c0,0,0.01,18.13,0.02,18.17c0,0-1.24-0.01-3.07-0.01
			c-1.18-0.01-2.6,10.99-4.09,10.98c-1.52-0.01-3.13-0.02-4.62-0.03c-1.23-0.01-2.38-11.02-3.36-11.02
			C21.2,23.4,19.96,23.39,19.96,23.37z"/>
	</g>
</g>
<g id="bottleSH">
	<g>
		<path class="st1" d="M43.04,101.5H14.96c-1.34,0-2.37-0.96-2.16-2.02l7.31-37.35c0.02-0.09,0.03-0.18,0.03-0.27V24.25
			c0-0.97,0.98-1.75,2.19-1.75l4.69,11.81h3.4l5.74-11.81c1.21,0,2.19,0.78,2.19,1.75v37.62c0,0.08,0.01,0.17,0.02,0.25l6.84,37.37
			C45.4,100.55,44.38,101.5,43.04,101.5z"/>
	</g>
	<circle class="st2" cx="38.59" cy="95.27" r="2.99"/>
	<circle class="st2" cx="39.09" cy="86.29" r="1"/>
	<circle class="st2" cx="21.39" cy="77.56" r="1"/>
	<circle class="st2" cx="27.37" cy="90.03" r="2.24"/>
	<circle class="st2" cx="20.01" cy="99.39" r="2.37"/>
	<circle class="st2" cx="33.36" cy="64.6" r="0.75"/>
	<circle class="st2" cx="23.38" cy="36.92" r="1"/>
	<circle class="st2" cx="28.49" cy="53" r="1.12"/>
	<circle class="st2" cx="38.72" cy="75.2" r="1.37"/>
	<circle class="st2" cx="33.61" cy="80.31" r="1"/>
	<circle class="st2" cx="27" cy="68.71" r="1.87"/>
	<circle class="st2" cx="33.61" cy="46.39" r="1.75"/>
</g>
<g id="Capa_1">
	<g>
		<path d="M41.52,6.5c0.58,0,1.06,0.47,1.06,1.06v45.46c0,0.56,0.07,1.13,0.2,1.68l10.88,44.51c0.11,0.43-0.08,0.75-0.2,0.9
			c-0.12,0.15-0.38,0.4-0.83,0.4H5.8c-0.44,0-0.71-0.25-0.83-0.4s-0.3-0.46-0.2-0.9l10.45-44.56c0.12-0.53,0.19-1.07,0.19-1.61V7.56
			c0-0.58,0.47-1.06,1.06-1.06H41.52 M41.52,3.5H16.46c-2.24,0-4.06,1.82-4.06,4.06v45.47c0,0.31-0.04,0.62-0.11,0.93L1.86,98.52
			c-0.6,2.55,1.33,4.98,3.95,4.98h46.82c2.63,0,4.56-2.46,3.94-5.02L45.69,53.97c-0.08-0.32-0.12-0.64-0.12-0.96V7.56
			C45.58,5.32,43.76,3.5,41.52,3.5L41.52,3.5z"/>
	</g>
	<g>
		<path class="st3" d="M12.41,23.57h9.89l4.1,10.63c0.14,0.36,0.48,0.59,0.86,0.59h3.3c0.37,0,0.71-0.23,0.86-0.57l4.43-10.65h9.59"
			/>
	</g>
	<circle class="st4" cx="29.24" cy="14.85" r="6.98"/>
	<circle class="st5" cx="29.37" cy="14.72" r="1.87"/>
	<rect class="st6" width="59" height="107"/>
</g>
</svg>
