<?xml version="1.0" encoding="utf-8"?>
<!-- Generator: Adobe Illustrator 24.1.1, SVG Export Plug-In . SVG Version: 6.00 Build 0)  -->
<svg version="1.1" id="Capa_1" xmlns="http://www.w3.org/2000/svg" xmlns:xlink="http://www.w3.org/1999/xlink" x="0px" y="0px"
	 viewBox="0 0 55 38" style="enable-background:new 0 0 55 38;" xml:space="preserve">
<style type="text/css">
	.st0{display:none;}
	.st1{fill:none;}
</style>
<g>
	<path d="M9.8,4.9c-1-1-1-2.6,0-3.5s2.6-1,3.5,0l31.8,31.8c1,1,1,2.6,0,3.5s-2.6,1-3.5,0L9.8,4.9z"/>
	<path class="st0" d="M44.8,33.5c0.8,0.8,0.8,2.1,0,2.8s-2.1,0.8-2.8,0L10.2,4.5c-0.8-0.8-0.8-2.1,0-2.8c0.8-0.8,2.1-0.8,2.8,0
		L44.8,33.5 M45.5,32.8L13.7,1c-1.2-1.2-3.1-1.2-4.2,0s-1.2,3,0,4.2L41.3,37c1.2,1.2,3.1,1.2,4.2,0S46.7,34,45.5,32.8L45.5,32.8z"/>
</g>
<g>
	<path d="M9.8,4.9c-1-1-1-2.6,0-3.5s2.6-1,3.5,0l31.8,31.8c1,1,1,2.6,0,3.5s-2.6,1-3.5,0L9.8,4.9z"/>
	<path class="st0" d="M44.8,33.5c0.8,0.8,0.8,2.1,0,2.8s-2.1,0.8-2.8,0L10.2,4.5c-0.8-0.8-0.8-2.1,0-2.8s2.1-0.8,2.8,0L44.8,33.5
		 M45.5,32.8L13.7,1c-1.2-1.2-3.1-1.2-4.2,0s-1.2,3,0,4.2L41.3,37c1.2,1.2,3.1,1.2,4.2,0S46.7,34,45.5,32.8L45.5,32.8z"/>
</g>
<g>
	<path d="M13.4,36.7c-1,1-2.6,1-3.5,0s-1-2.6,0-3.5L41.6,1.3c1-1,2.6-1,3.5,0c1,1,1,2.6,0,3.5L13.4,36.7z"/>
	<path class="st0" d="M42,1.7c0.8-0.8,2.1-0.8,2.8,0c0.8,0.8,0.8,2.1,0,2.8L13,36.3c-0.8,0.8-2.1,0.8-2.8,0c-0.8-0.8-0.8-2.1,0-2.8
		L42,1.7 M41.3,1L9.5,32.8c-1.2,1.2-1.2,3.1,0,4.2s3.1,1.2,4.2,0L45.5,5.2c1.2-1.2,1.2-3.1,0-4.2S42.5-0.2,41.3,1L41.3,1z"/>
</g>
<g>
	<rect class="st1" width="55" height="38"/>
</g>
</svg>
